<?xml version="1.0" standalone="no"?>
<!DOCTYPE svg PUBLIC "-//W3C//DTD SVG 20010904//EN"
 "http://www.w3.org/TR/2001/REC-SVG-20010904/DTD/svg10.dtd">
<svg version="1.0" xmlns="http://www.w3.org/2000/svg"
 width="1000.000000pt" height="1000.000000pt" viewBox="0 0 1000.000000 1000.000000"
 preserveAspectRatio="xMidYMid meet">
<metadata>
Created by potrace 1.11, written by Peter Selinger 2001-2013
</metadata>
<g transform="translate(0.000000,1000.000000) scale(0.100000,-0.100000)"
fill="#000000" stroke="none">
<path d="M0 5000 l0 -5000 5000 0 5000 0 0 5000 0 5000 -5000 0 -5000 0 0
-5000z m2611 808 c162 -56 226 -142 222 -299 -1 -43 -9 -84 -23 -117 -26 -60
-97 -130 -158 -157 -23 -10 -42 -21 -42 -24 0 -3 26 -14 58 -23 115 -34 196
-111 223 -211 15 -58 12 -162 -6 -218 -22 -65 -100 -150 -169 -184 -110 -54
-137 -57 -483 -62 -178 -3 -323 -2 -323 1 0 4 8 23 18 44 45 90 47 112 47 622
l0 485 -26 65 c-14 36 -30 73 -34 83 -7 18 6 18 321 14 266 -3 338 -7 375 -19z
m3170 0 c162 -56 226 -142 222 -299 -1 -43 -9 -84 -23 -117 -26 -60 -97 -130
-158 -157 -23 -10 -42 -21 -42 -24 0 -3 26 -14 58 -23 115 -34 196 -111 223
-211 15 -58 12 -162 -6 -218 -22 -65 -100 -150 -169 -184 -110 -54 -137 -57
-483 -62 -178 -3 -323 -2 -323 1 0 4 8 23 18 44 45 90 47 112 47 622 l0 485
-26 65 c-14 36 -30 73 -34 83 -7 18 6 18 321 14 266 -3 338 -7 375 -19z
m-1501 -493 l0 -86 52 52 c73 73 159 112 247 111 39 -1 86 -8 110 -18 48 -19
106 -82 122 -133 7 -21 15 -164 19 -336 6 -231 11 -311 23 -347 l16 -48 -129
0 c-72 0 -130 1 -130 3 0 1 7 36 15 77 21 107 31 477 15 555 -16 75 -68 134
-121 136 -92 4 -142 -10 -205 -58 l-37 -28 6 -270 c4 -188 11 -291 21 -340 9
-38 16 -71 16 -72 0 -2 -59 -3 -131 -3 l-130 0 7 23 c22 69 26 114 31 336 6
271 0 320 -47 394 l-29 46 72 27 c40 15 92 35 117 45 71 28 70 29 70 -66z
m3160 0 l0 -86 52 52 c73 73 159 112 247 111 39 -1 86 -8 110 -18 48 -19 106
-82 122 -133 7 -21 15 -164 19 -336 6 -231 11 -311 23 -347 l16 -48 -129 0
c-72 0 -130 1 -130 3 0 1 7 36 15 77 21 107 31 477 15 555 -16 75 -68 134
-121 136 -92 4 -142 -10 -205 -58 l-37 -28 6 -270 c4 -188 11 -291 21 -340 9
-38 16 -71 16 -72 0 -2 -59 -3 -131 -3 l-130 0 7 23 c22 69 26 114 31 336 6
271 0 320 -47 394 l-29 46 72 27 c40 15 92 35 117 45 71 28 70 29 70 -66z
m-4150 -255 c0 -335 2 -352 54 -399 20 -19 40 -26 84 -29 70 -5 127 19 166 71
l26 34 0 235 c0 256 -8 311 -56 368 l-26 30 131 0 130 0 3 -357 c3 -346 4
-359 25 -399 12 -22 29 -47 38 -54 15 -12 2 -17 -102 -41 -65 -16 -121 -28
-125 -28 -5 -1 -8 47 -9 107 0 104 -1 106 -17 82 -107 -154 -161 -193 -274
-193 -94 0 -150 34 -193 118 l-30 59 -6 285 c-4 164 -11 300 -17 320 -6 18
-23 48 -37 67 l-26 34 130 0 131 0 0 -310z m3160 0 c0 -335 2 -352 54 -399 20
-19 40 -26 84 -29 70 -5 127 19 166 71 l26 34 0 235 c0 256 -8 311 -56 368
l-26 30 131 0 130 0 3 -357 c3 -346 4 -359 25 -399 12 -22 29 -47 38 -54 15
-12 2 -17 -102 -41 -65 -16 -121 -28 -125 -28 -5 -1 -8 47 -9 107 0 104 -1
106 -17 82 -107 -154 -161 -193 -274 -193 -94 0 -150 34 -193 118 l-30 59 -6
285 c-4 164 -11 300 -17 320 -6 18 -23 48 -37 67 l-26 34 130 0 131 0 0 -310z"/>
<path d="M2235 5792 l-40 -7 -3 -289 -2 -289 132 5 c156 6 187 16 245 82 34
39 45 61 59 123 19 87 14 172 -14 236 -23 53 -89 112 -139 127 -47 14 -184 21
-238 12z"/>
<path d="M2190 4877 c0 -227 3 -308 12 -313 7 -4 60 -10 119 -12 134 -6 203
13 267 72 55 50 78 95 92 180 20 113 -12 239 -77 302 -58 55 -105 68 -265 72
l-148 4 0 -305z"/>
<path d="M5405 5792 l-40 -7 -3 -289 -2 -289 132 5 c156 6 187 16 245 82 34
39 45 61 59 123 19 87 14 172 -14 236 -23 53 -89 112 -139 127 -47 14 -184 21
-238 12z"/>
<path d="M5360 4877 c0 -227 3 -308 12 -313 7 -4 60 -10 119 -12 134 -6 203
13 267 72 55 50 78 95 92 180 20 113 -12 239 -77 302 -58 55 -105 68 -265 72
l-148 4 0 -305z"/>
</g>
</svg>
